<mxfile host="app.diagrams.net" modified="2023-09-08T15:42:35.354Z" agent="Mozilla/5.0 (Macintosh; Intel Mac OS X 10_15_7) AppleWebKit/537.36 (KHTML, like Gecko) Chrome/116.0.0.0 Safari/537.36" version="21.6.8" etag="Rjhh23AtY_EPf2admaEX" type="github">
  <diagram name="Page-1" id="fW9cwNK20p2awDllsJRu">
    <mxGraphModel>
      <root>
        <mxCell id="0" />
        <mxCell id="1" parent="0" />
      </root>
    </mxGraphModel>
  </diagram>
</mxfile>
